<?xml version="1.0" standalone="no"?>
<!DOCTYPE svg PUBLIC "-//W3C//DTD SVG 20010904//EN"
 "http://www.w3.org/TR/2001/REC-SVG-20010904/DTD/svg10.dtd">
<svg version="1.0" xmlns="http://www.w3.org/2000/svg"
 width="1910.000000pt" height="696.000000pt" viewBox="0 0 1910.000000 696.000000"
 preserveAspectRatio="xMidYMid meet">

<g transform="translate(0.000000,696.000000) scale(0.100000,-0.100000)"
fill="#000000" stroke="none">
<path d="M4757 6953 c-4 -3 -7 -852 -7 -1885 l0 -1878 4695 0 4695 0 -2 1883
-3 1882 -4686 3 c-2577 1 -4689 -1 -4692 -5z m1017 -320 c10 -56 34 -210 95
-603 140 -900 161 -1027 161 -970 0 7 21 142 46 299 25 157 52 324 59 371 7
47 43 270 79 496 36 227 66 417 66 423 0 8 100 11 368 9 l367 -3 0 -1422 c0
-782 3 -1414 6 -1405 3 9 9 37 13 62 8 58 249 1673 276 1850 11 74 45 302 76
505 30 204 57 380 59 393 l5 22 380 0 380 0 5 -22 c2 -13 27 -174 55 -358 27
-184 59 -396 70 -470 11 -74 63 -418 115 -765 52 -346 103 -688 114 -760 11
-71 28 -184 38 -250 18 -119 18 -107 21 1253 l2 1374 373 -5 c395 -4 404 -5
557 -61 156 -58 322 -196 430 -362 39 -59 51 -71 46 -49 -8 40 -56 431 -56
456 0 18 9 19 289 19 l289 0 6 -32 c3 -18 26 -186 51 -373 25 -187 52 -383 59
-435 7 -52 42 -308 77 -567 35 -260 67 -473 72 -473 4 0 7 10 7 23 0 12 14
121 30 242 17 121 47 335 66 475 35 259 54 395 79 575 7 55 28 205 46 333 l32
232 806 -2 806 -3 3 -287 2 -288 -260 0 -260 0 2 -356 3 -355 255 -2 255 -2 0
-290 0 -290 -257 -3 -258 -2 0 -360 0 -360 260 0 260 0 0 -285 0 -285 -545 0
-545 0 -1 1408 c-1 1570 5 1464 -59 1057 -30 -190 -88 -556 -100 -630 -5 -33
-19 -118 -30 -190 -11 -71 -34 -215 -51 -320 -48 -301 -57 -360 -84 -530 -102
-641 -126 -789 -129 -792 -1 -2 -151 -6 -333 -10 -279 -5 -330 -4 -335 8 -3 8
-77 444 -164 969 -88 525 -160 939 -162 920 -5 -67 -34 -193 -58 -257 -51
-134 -113 -232 -217 -340 l-69 -71 166 -564 c91 -309 172 -584 180 -610 l14
-48 -283 0 -283 0 -11 33 c-5 17 -33 122 -61 232 -29 110 -74 281 -100 380
-26 99 -60 229 -75 289 l-29 108 -44 -6 c-25 -3 -53 -6 -63 -6 -18 0 -19 -20
-19 -515 l0 -515 -547 2 -547 3 -28 195 c-15 107 -30 214 -33 238 l-6 42 -219
0 -218 0 -6 -27 c-3 -16 -15 -100 -27 -188 -11 -88 -24 -182 -28 -210 l-6 -50
-558 -3 -557 -2 -1 727 c-1 631 -3 718 -14 653 -7 -41 -61 -358 -119 -705 -58
-346 -108 -640 -111 -652 -5 -23 -8 -23 -159 -23 l-154 0 -11 63 c-15 83 -172
1008 -207 1217 -15 91 -30 168 -33 172 -3 4 -5 -321 -3 -722 l2 -730 -290 0
-290 0 0 1585 0 1585 364 0 364 0 6 -27z m7586 -1273 l0 -1300 245 0 245 0 0
-285 0 -285 -530 0 -530 0 0 1585 0 1585 285 0 285 0 0 -1300z"/>
<path d="M9210 5581 l0 -511 28 6 c104 23 178 67 233 141 49 64 64 97 89 184
25 90 27 272 5 367 -41 173 -159 293 -312 317 l-43 7 0 -511z"/>
<path d="M7827 5750 c-6 -34 -11 -71 -62 -510 -59 -515 -85 -740 -85 -750 0
-6 54 -10 155 -10 85 0 155 4 155 9 0 4 -11 102 -25 217 -14 115 -32 263 -39
329 -47 390 -87 722 -90 735 -1 8 -6 -1 -9 -20z"/>
<path d="M10320 2590 c-609 -39 -747 -149 -822 -655 -9 -63 -13 -206 -13 -475
0 -402 9 -531 46 -684 10 -43 19 -81 19 -83 0 -2 5 -1 11 3 6 3 15 0 20 -7 13
-21 11 -29 -7 -29 -8 0 -12 -5 -9 -11 4 -6 13 -8 20 -5 7 2 16 -2 19 -10 9
-23 7 -27 -10 -20 -9 3 -12 2 -9 -5 4 -6 13 -8 20 -5 7 2 26 -16 44 -44 61
-93 200 -174 340 -196 22 -4 39 -10 36 -14 -3 -4 17 -5 43 -3 34 3 43 2 32 -6
-12 -8 -9 -12 13 -20 39 -15 104 -14 110 2 4 7 6 6 6 -4 1 -25 230 -33 831
-33 746 1 994 26 1173 116 181 91 261 290 287 718 26 438 -2 874 -70 1077 -83
249 -210 330 -595 379 -107 14 -245 17 -770 19 -352 2 -696 -1 -765 -5z m1505
-89 c235 -26 345 -63 436 -148 126 -117 162 -255 179 -670 16 -390 -7 -804
-54 -954 -68 -218 -208 -312 -521 -350 -275 -33 -1514 -29 -1765 6 -357 49
-478 181 -522 570 -17 158 -17 786 0 945 33 298 105 436 269 519 109 54 238
77 523 91 225 11 1331 4 1455 -9z m470 -112 c10 -14 1 -21 -19 -13 -9 3 -13
10 -10 15 7 12 21 11 29 -2z m-2012 -2066 c-7 -2 -19 -2 -25 0 -7 3 -2 5 12 5
14 0 19 -2 13 -5z"/>
<path d="M10441 1989 c-289 -26 -332 -100 -334 -574 0 -229 10 -320 43 -385
24 -47 70 -92 87 -86 8 3 12 2 9 -3 -7 -11 10 -18 94 -38 53 -12 161 -16 570
-20 697 -6 829 6 910 87 68 68 75 106 75 415 0 265 -8 390 -25 380 -4 -3 -6 4
-3 15 3 11 1 20 -5 20 -6 0 -8 10 -4 22 4 16 2 19 -8 13 -8 -5 -11 -4 -7 3 10
15 -3 42 -21 42 -8 0 -12 3 -9 7 15 14 -40 54 -99 73 -36 11 -122 24 -201 29
-160 13 -934 12 -1072 0z m1124 -75 c54 -4 67 -3 55 6 -26 20 74 3 117 -20 21
-11 50 -25 66 -32 30 -14 34 -23 12 -32 -13 -5 -12 -12 7 -48 25 -48 34 -108
15 -108 -9 0 -12 -62 -12 -262 0 -299 -2 -307 -78 -374 -92 -81 -194 -94 -757
-94 -553 1 -633 11 -726 93 -71 63 -77 83 -82 304 -6 275 14 429 66 486 42 48
156 77 337 87 149 9 862 4 980 -6z m212 0 c-3 -3 -12 -4 -19 -1 -8 3 -5 6 6 6
11 1 17 -2 13 -5z m-1542 -914 c-3 -5 -12 -10 -18 -10 -7 0 -6 4 3 10 19 12
23 12 15 0z"/>
<path d="M11780 1850 c0 -5 5 -10 11 -10 5 0 7 5 4 10 -3 6 -8 10 -11 10 -2 0
-4 -4 -4 -10z"/>
<path d="M16425 2584 c-224 -16 -336 -40 -451 -95 -192 -91 -274 -285 -274
-646 0 -181 16 -281 44 -285 15 -2 21 -11 21 -33 1 -41 29 -80 51 -71 14 5 15
4 4 -9 -11 -13 -10 -14 4 -9 13 5 17 2 16 -12 -4 -33 -1 -41 27 -69 44 -43
225 -125 278 -125 7 0 19 -9 26 -20 12 -18 31 -22 149 -30 371 -26 1250 -54
1264 -40 13 13 38 13 73 -2 15 -6 32 -10 36 -9 5 1 6 -3 2 -9 -4 -6 -3 -16 3
-23 5 -7 12 -20 15 -30 5 -13 2 -17 -11 -15 -13 2 -18 -5 -20 -34 -7 -85 -66
-99 -462 -108 -705 -16 -802 -5 -829 96 l-7 29 -354 3 -353 2 7 -137 c8 -170
23 -263 42 -263 7 0 22 -17 33 -38 50 -98 155 -181 276 -218 33 -10 61 -22 63
-26 2 -4 10 -4 19 -1 10 4 14 2 10 -4 -25 -40 396 -73 933 -73 433 0 768 23
919 61 212 54 338 182 388 396 23 99 26 472 4 568 -26 117 -69 212 -123 271
-121 132 -245 154 -963 174 -554 15 -786 30 -836 56 -29 15 -39 33 -39 70 0
38 16 61 52 74 49 17 428 32 736 28 154 -2 272 1 272 6 0 11 91 -1 104 -14 14
-14 29 -12 20 3 -6 9 -4 9 8 -1 9 -7 20 -12 24 -11 20 3 35 -2 30 -10 -3 -5
-16 -7 -29 -4 -21 4 -21 4 -3 -11 10 -8 16 -22 13 -30 -4 -9 -3 -15 1 -15 21
3 24 -3 6 -16 -17 -13 -14 -14 36 -14 30 1 47 3 38 6 -10 2 -18 9 -18 14 0 10
26 11 350 9 188 -1 227 -4 242 -17 16 -14 18 -13 24 12 8 34 -2 240 -16 313
-39 208 -217 329 -550 373 -79 11 -1204 21 -1325 13z m1305 -89 c180 -24 281
-59 384 -132 26 -19 45 -29 40 -22 -5 9 -2 10 10 6 10 -4 21 -7 25 -7 14 0 58
-74 66 -109 6 -27 4 -33 -7 -29 -11 5 -13 -18 -10 -133 l4 -139 -276 0 -277 0
-37 39 c-66 69 -157 80 -662 81 -513 0 -612 -15 -646 -97 -11 -26 -14 -53 -11
-86 7 -52 43 -128 66 -135 9 -3 11 0 6 8 -5 9 -4 11 4 6 6 -4 9 -11 6 -16 -3
-4 5 -10 18 -14 39 -10 367 -25 762 -36 456 -12 676 -26 770 -46 39 -9 83 -16
98 -16 16 -1 24 -4 18 -7 -6 -4 2 -14 19 -25 17 -9 35 -14 42 -10 6 4 8 3 5
-3 -12 -19 19 -36 42 -23 17 9 20 8 15 -5 -3 -8 -10 -12 -15 -9 -5 3 9 -21 31
-52 22 -32 49 -87 61 -123 43 -141 45 -461 4 -621 -48 -184 -163 -295 -348
-334 -126 -27 -291 -37 -737 -43 -461 -6 -811 5 -985 32 -216 33 -356 104
-412 209 -24 45 -53 202 -53 289 l0 77 279 0 279 0 19 -37 c25 -53 71 -80 151
-90 117 -14 1068 -9 1137 6 117 26 138 48 139 151 0 84 -29 149 -78 172 -47
23 -86 27 -391 38 -981 37 -1117 46 -1227 80 -135 41 -208 115 -254 257 -28
85 -29 95 -29 283 0 224 14 305 71 419 79 158 216 225 514 251 194 16 252 18
770 14 371 -2 512 -7 600 -19z m400 -889 c0 -3 -4 -8 -10 -11 -5 -3 -10 -1
-10 4 0 6 5 11 10 11 6 0 10 -2 10 -4z m-1700 -721 c-7 -8 -17 -15 -22 -15
-11 0 14 29 26 30 5 0 3 -7 -4 -15z"/>
<path d="M400 1435 l0 -1125 380 0 380 0 0 405 0 405 565 0 c481 0 566 2 571
14 5 14 33 14 54 1 6 -4 17 -2 24 4 9 8 13 7 13 -3 0 -8 -10 -17 -23 -20 -29
-8 -30 -24 -29 -461 l0 -340 378 -2 377 -1 1 921 c1 507 2 1012 3 1122 l1 200
-382 3 -383 2 3 -397 2 -398 -587 -3 -588 -2 0 400 0 400 -380 0 -380 0 0
-1125z m680 655 l0 -399 663 -1 662 0 -1 377 c0 208 2 388 4 401 l4 22 304 0
304 0 0 -1040 0 -1040 -305 0 -305 0 -1 318 c-1 174 -2 350 -3 389 l-1 73
-662 0 -663 0 0 -224 c0 -213 -5 -271 -19 -247 -4 6 -55 11 -124 12 -106 1
-117 3 -117 19 0 24 -5 26 -60 33 -34 5 -39 4 -20 -3 19 -7 14 -8 -20 -3 -24
3 -52 10 -60 16 -21 13 -110 0 -110 -16 0 -7 -4 -6 -11 3 -7 11 -12 12 -15 3
-6 -13 -35 -6 -46 11 -4 6 -8 390 -8 854 l0 842 305 0 305 0 0 -400z m-283
-1336 c-3 -3 -12 -4 -19 -1 -8 3 -5 6 6 6 11 1 17 -2 13 -5z"/>
<path d="M3572 1438 l3 -1123 1240 1 1240 2 0 323 0 324 -883 3 -883 2 3 98 3
97 701 3 702 2 -2 273 -1 272 -703 3 -703 2 3 98 3 97 873 3 872 2 0 320 0
320 -1235 0 -1235 0 2 -1122z m2398 802 l0 -250 -875 0 -875 0 0 -174 0 -173
700 1 700 1 0 -202 0 -203 -700 0 -700 0 0 -175 0 -175 880 0 880 0 0 -250 0
-250 -1159 0 -1158 0 -7 78 c-8 105 -20 1986 -13 2006 6 15 112 16 1167 16
l1160 0 0 -250z"/>
<path d="M6497 1718 c2 -464 3 -968 3 -1120 l0 -278 360 0 360 0 2 363 c1 199
3 371 4 382 1 11 2 30 3 43 l1 22 269 0 268 0 158 -207 c87 -115 164 -213 171
-219 8 -6 14 -16 14 -22 0 -6 8 -17 18 -24 9 -7 22 -22 28 -33 7 -11 18 -19
26 -17 9 1 22 -5 29 -15 13 -15 12 -15 -8 -4 -13 6 -23 9 -23 6 0 -12 122
-165 131 -165 5 0 9 -6 9 -12 0 -7 16 -33 35 -57 21 -27 35 -37 35 -27 0 9 5
16 11 16 6 0 8 -9 4 -22 l-7 -21 218 7 c121 4 229 7 242 7 12 0 22 4 22 10 0
5 5 7 12 3 18 -12 59 -14 53 -3 -4 5 1 9 9 9 9 0 16 -4 16 -10 0 -11 69 -10
76 2 3 4 0 8 -7 8 -7 0 -9 3 -6 6 4 4 18 -1 33 -11 22 -14 28 -15 35 -4 6 10
9 11 9 2 0 -9 20 -13 66 -13 l66 0 -68 88 c-38 48 -150 188 -249 312 -235 292
-315 396 -315 407 0 4 35 16 78 25 255 52 393 185 449 432 23 103 28 385 9
491 -53 284 -228 436 -546 475 -52 6 -469 10 -1095 10 l-1010 0 2 -842z m2138
745 c167 -39 256 -82 329 -164 73 -82 106 -175 121 -349 8 -87 -8 -279 -30
-362 -37 -143 -111 -236 -239 -298 -95 -47 -170 -67 -278 -76 -43 -4 -78 -10
-78 -13 0 -7 122 -161 183 -231 20 -24 37 -38 37 -31 0 9 3 9 14 -1 9 -8 10
-15 4 -19 -6 -4 59 -94 144 -200 182 -229 248 -315 248 -323 0 -3 -147 -6
-327 -6 l-328 0 -155 203 c-85 111 -222 293 -305 404 l-150 202 -337 1 -338 0
0 -405 0 -405 -290 0 -290 0 0 1051 0 1050 988 -4 c952 -4 990 -4 1077 -24z
m-494 -1780 c13 -16 12 -17 -3 -4 -17 13 -22 21 -14 21 2 0 10 -8 17 -17z"/>
<path d="M7150 1794 l0 -175 598 4 c420 3 608 8 635 17 22 6 55 26 74 44 28
25 36 41 40 78 12 107 -30 178 -118 197 -32 7 -257 11 -639 11 l-590 0 0 -176z
m1254 112 c39 -16 74 -58 54 -65 -18 -6 -28 -22 -28 -47 0 -33 -50 -72 -109
-85 -36 -7 -226 -12 -575 -13 l-521 -1 1 65 c1 36 2 82 3 103 l1 38 550 -3
c435 -2 550 0 550 10 0 16 33 15 74 -2z"/>
<path d="M12890 1441 l0 -1119 43 -4 c23 -3 581 -6 1240 -7 l1197 -2 -2 328
-3 328 -884 3 -883 2 6 23 c3 12 6 57 6 100 l0 77 700 0 700 0 0 275 0 275
-699 0 c-385 0 -701 3 -703 8 -2 4 -2 49 0 100 l3 92 875 0 874 0 0 320 0 320
-1235 0 -1235 0 0 -1119z m2390 799 l0 -250 -875 0 -875 0 0 -169 0 -168 88
-6 c48 -4 362 -6 697 -5 l610 2 3 -202 2 -202 -700 0 -700 0 0 -174 0 -174 28
1 c15 0 413 -1 886 -2 l859 -1 -6 -227 c-4 -126 -7 -238 -7 -250 l0 -23 -1165
0 -1165 0 0 1050 0 1050 1160 0 1160 0 0 -250z"/>
<path d="M15720 610 c0 -5 5 -10 10 -10 6 0 10 5 10 10 0 6 -4 10 -10 10 -5 0
-10 -4 -10 -10z"/>
<path d="M10050 330 c0 -5 5 -10 10 -10 6 0 10 5 10 10 0 6 -4 10 -10 10 -5 0
-10 -4 -10 -10z"/>
</g>
</svg>
