<?xml version="1.0" standalone="no"?>
<!DOCTYPE svg PUBLIC "-//W3C//DTD SVG 20010904//EN"
 "http://www.w3.org/TR/2001/REC-SVG-20010904/DTD/svg10.dtd">
<svg version="1.0" xmlns="http://www.w3.org/2000/svg"
 width="674.000000pt" height="370.000000pt" viewBox="0 0 674.000000 370.000000"
 preserveAspectRatio="xMidYMid meet">
<metadata>
Created by potrace 1.16, written by Peter Selinger 2001-2019
</metadata>
<g transform="translate(0.000000,370.000000) scale(0.100000,-0.100000)"
fill="#000000" stroke="none">
<path d="M470 1815 l0 -1045 190 0 190 0 2 372 3 372 78 -355 c43 -194 81
-362 84 -372 4 -16 16 -17 101 -15 l96 3 26 110 c15 61 50 209 79 330 85 357
79 363 80 -67 l1 -378 353 0 353 0 30 97 30 98 142 3 141 3 10 -38 c8 -32 31
-149 31 -160 0 -2 169 -3 375 -3 l375 0 2 340 3 339 89 -237 c49 -130 100
-266 113 -302 13 -36 31 -82 40 -102 l16 -38 183 0 183 0 -134 396 -134 396
54 63 c79 94 151 256 176 399 6 37 13 65 16 63 3 -4 178 -1035 204 -1207 19
-124 -11 -110 229 -110 190 0 209 2 214 17 3 10 28 149 56 308 64 366 73 417
104 595 104 599 187 1064 191 1068 3 3 5 -443 5 -991 l0 -997 340 0 340 0 0
210 0 210 -155 0 -155 0 0 200 0 200 150 0 150 0 0 220 0 220 -150 0 -150 0 0
215 0 215 155 0 155 0 0 195 0 195 -530 0 -530 0 -4 -22 c-3 -13 -10 -52 -16
-88 -6 -36 -31 -184 -56 -330 -89 -518 -104 -605 -104 -614 0 -35 -13 22 -35
159 -39 241 -124 761 -136 838 l-11 67 -189 0 -189 0 5 -22 c2 -13 11 -81 20
-153 9 -71 18 -136 20 -142 11 -33 -5 -6 -40 63 -44 89 -129 181 -204 219
l-50 25 -326 0 -325 0 -1 -922 -1 -923 -24 140 c-13 77 -33 203 -45 280 -11
77 -33 221 -49 320 -16 99 -40 257 -55 350 -45 293 -55 356 -79 515 -14 85
-27 176 -31 203 l-6 47 -234 0 c-214 0 -234 -1 -239 -17 -3 -10 -21 -121 -41
-248 -20 -126 -51 -324 -70 -440 -42 -260 -95 -595 -130 -820 -56 -361 -53
-398 -54 608 l-1 917 -234 0 -234 0 -6 -37 c-7 -37 -36 -170 -112 -513 -52
-236 -64 -294 -64 -304 0 -46 -25 66 -94 426 l-82 423 -237 3 -237 2 0 -1045z
m2862 639 c110 -70 160 -276 104 -429 -34 -95 -84 -140 -173 -160 l-33 -7 0
317 0 317 32 -7 c18 -4 49 -18 70 -31z m-1012 -515 c34 -200 90 -536 90 -546
0 -10 -26 -13 -98 -13 l-98 0 32 223 c18 122 37 262 44 310 7 48 14 86 16 84
3 -2 9 -29 14 -58z"/>
<path d="M5670 1810 l0 -1050 325 0 325 0 0 210 0 209 -147 3 -148 3 -3 838
-2 837 -175 0 -175 0 0 -1050z"/>
</g>
</svg>
